<?xml version="1.0" encoding="utf-8"?>
<!-- Generator: Adobe Illustrator 24.2.3, SVG Export Plug-In . SVG Version: 6.00 Build 0)  -->
<svg version="1.1" id="Layer_2_1_" xmlns="http://www.w3.org/2000/svg" xmlns:xlink="http://www.w3.org/1999/xlink" x="0px" y="0px"
	 viewBox="0 0 1325.5 444.3" style="enable-background:new 0 0 1325.5 444.3;" xml:space="preserve">
<style type="text/css">
	.st0{enable-background:new    ;}
	.st1{fill:#FFFFFF;}
</style>
<g class="st0">
	<path class="st1" d="M193.9,24.3c0.4-0.9,4.4-1.4,11.9-1.6l11.3-0.2l2.7,60.4l2.7,60.6l15.6-0.6l15.6-0.6l0.4,10.4l0.4,10.1
		l-13.6,0.3c-6.9,0.3-11,0.3-12.2,0.2c-1.2-0.2-2.2-0.9-2.8-2.2l-1.2-2.4l-0.1,2.7l-0.3,2.9l-11.8-0.2c-7.9-0.1-11.9-0.3-12.3-0.6
		c-0.3-0.3-1.5-23.4-3.7-69.2C194.5,48.3,193.6,25,193.9,24.3z"/>
</g>
<g class="st0">
	<path class="st1" d="M267.5,9.2c0.2-0.3,0.5-0.5,1.1-0.7c0.6-0.2,1.9-0.4,3.9-0.5c2-0.1,4.4-0.1,7.2-0.1C282.6,8,286.9,8,292.6,8
		c15.4,0.3,23.2,0.8,23.5,1.4c0.1,0.3,0.1,0.6,0,0.9c-0.3,1.3-0.1,2.2,0.6,2.7c0.7,0.6,1.3,0.5,1.6-0.2c0.3-0.9,0.8-1.3,1.4-1.3
		c0.8,0,0.9,2.7,0.5,8.2l-0.4,8.2l-15.4-0.1L289,27.5l-0.5,20.5l-0.5,20.5l9.5,0.4l9,0.6l0.3,8.6c0,5.9-0.4,9.1-1.4,9.7
		c-0.9,0.4-4.1,0.6-9.5,0.4l-8.4-0.2l-0.2,21l-0.2,20.5l14.9,0.3l14.7,0.1l0.1,5.5c0.1,2.1,0.1,3.8,0.1,5.3c0,1.5-0.1,3-0.3,4.6
		c0,1.3-0.2,2.2-0.4,2.8c-0.2,0.5-0.6,0.9-0.9,1.2c-0.4,0.3-1.1,0.5-2.2,0.6c-3,0.2-8,0.3-15.1,0.1c-7-0.2-14.2-0.5-21.5-1
		c-7.3-0.5-11.2-1-11.6-1.5c-0.9-0.8-0.8-23.8,0.2-69.1C266.1,33.6,266.8,10.5,267.5,9.2z"/>
</g>
<g class="st0">
	<path class="st1" d="M322.1,29.4c0.8-0.5,1.6-0.4,2.4,0.3c0.9,0.7,1.9,0.7,2.9-0.2c0.9-0.7,2-0.8,3.2-0.2c1.2,0.7,2.6,0.8,4.3,0.2
		c1.8-0.7,9.6-0.9,23.3-0.5l20.8,0.3l0.2,10.2l0.2,10.2l-7.9-0.3c-5.4-0.3-8.4-0.3-8.8,0.2c-0.3,0.4-0.6,20.8-1,61.1l-0.5,60.5
		l-11.3,0.2l-11.5-0.1l0.3-60.5c0.4-40.5,0.4-60.8,0.1-61.1c-0.2-0.1-3.1-0.4-8.8-0.7l-8.6-0.3l-0.2-9.3
		C321,33.2,321.3,29.9,322.1,29.4z"/>
</g>
<g class="st0">
	<path class="st1" d="M442.5,15.5c0.3-0.5,5.6-0.9,16-1.2l15.4-0.5l0.9,5.7c3.8,25.3,5.9,38,6.3,38c0.1,0,0.4-2.3,0.9-6.9
		c2.3-21.1,3.4-33.4,3.2-36.8c0-0.3,5.5-0.6,16.5-0.8l16.3-0.3l2.6,68.2c1.7,45.3,2.1,68.4,1.1,69.3c-0.9,0.6-1.3,1-1.3,1.1l1.3-0.3
		c1-0.6,1.6-0.3,1.6,1c0,1-0.4,1.6-1.4,1.8c-1,0.2-3.8,0.4-8.5,0.5l-10,0.3l-1.7-49.2c-1-32.8-1.7-48.7-2.1-47.6
		c-0.8,2.4-2.8,21.7-5.9,57.8c-1.1,12.3-2.1,18.8-2.9,19.8c-1.3,1.7-1.6,2.6-1,2.7c0.2,0.1,0.5,0.1,0.9-0.3c0.4-0.3,0.7-0.1,0.8,0.6
		c0.1,0.7,0,2.2-0.2,4.4c-0.5,6.2-1,9.8-1.4,10.8c-0.4,1-1.7,1.5-3.8,1.6c-2.1,0.1-3.4-0.2-4-1c-0.6-0.7-1.1-3.2-1.7-7.4
		c-0.4-2.8-0.3-4.3,0.3-4.6c0.6-0.5,0.3-1.1-0.7-2c-0.9-1-1.5-2.9-1.6-5.7c-0.1-2.8,0.3-4.6,1.2-5.6c0.6-0.8,0.7-1.1,0.4-0.9
		c-0.2,0-0.4,0.1-0.7,0.1c-0.3,0.1-0.6-0.1-0.8-0.5c-0.2-0.4-0.5-1.2-0.9-2.4c-0.3-1.2-0.7-2.7-1-4.7s-0.7-4.6-1.3-7.8
		c-1.6-10.7-3.5-22.4-5.6-35c-2.2-12.7-3.4-19.1-3.7-19.2c-0.2-0.1-0.2,1.9,0,6.2c0.1,4.3,0.3,10.2,0.5,17.8
		c0.2,7.6,0.4,15.7,0.7,24.4l1.7,49l-11.1,0.4l-11.1,0.4l-0.4-4.2c-0.8-18.1-1.6-43-2.4-74.9c-0.8-31.8-1-47.9-0.5-48
		c0.7-0.5,0.7-0.9,0-1.3c-0.6-0.3-1-2.2-1.2-5.9C442,18.7,442.1,16.4,442.5,15.5z"/>
</g>
<g class="st0">
	<path class="st1" d="M530.4,16.4c0.2-0.3,0.5-0.5,1.1-0.8c0.6-0.2,1.9-0.4,3.8-0.5c2-0.1,4.4-0.2,7.2-0.2c2.9,0,7.2,0,12.9-0.1
		c15.4,0.1,23.2,0.4,23.5,1c0.1,0.3,0.1,0.6,0,0.9c-0.3,1.3-0.1,2.2,0.7,2.7c0.8,0.6,1.3,0.5,1.6-0.2c0.3-0.9,0.8-1.3,1.4-1.3
		c0.8,0,1,2.7,0.6,8.2l-0.3,8.2l-15.4,0.1l-15.4,0.1l-0.1,20.5L552,75.5l9.5,0.3l9,0.5l0.4,8.6c0.1,5.9-0.3,9.1-1.2,9.7
		c-0.9,0.4-4.1,0.6-9.5,0.6l-8.4,0l0.1,21l0.1,20.5l14.9,0.1l14.7-0.1l0.2,5.5c0.1,2.1,0.2,3.8,0.2,5.3c0,1.5-0.1,3-0.3,4.6
		c0,1.3-0.1,2.2-0.4,2.8c-0.2,0.5-0.5,0.9-0.9,1.2c-0.4,0.3-1.1,0.5-2.2,0.6c-3,0.3-8,0.4-15.1,0.4c-7,0-14.2-0.3-21.5-0.7
		c-7.3-0.4-11.2-0.8-11.6-1.3c-0.9-0.7-1.2-23.8-1-69.1C529.5,40.9,529.8,17.7,530.4,16.4z"/>
</g>
<g class="st0">
	<path class="st1" d="M678.3,58.1l-1.8-57.6l11.8-0.2L699.8,0l1,59.6c0.3,37.4,0,58.5-0.8,63.4c-0.5,3-2.1,6.3-4.8,10
		c-4.5,6.7-11.8,9.9-21.8,9.5c-5.1-0.3-8.8-0.9-10.9-1.8c-1.7-0.8-3.8-2.6-6.3-5.2c-2.5-2.6-4.4-4.9-5.7-6.9
		c-2.7-4.8-4-13.2-3.9-25.1l0-9.7l9.1,0.3c6-0.1,9.3,0,9.7,0.5c0.6,0.3,1,4.5,1.2,12.6c0.1,5.6,0.3,9.1,0.6,10.5
		c0.3,1.4,1,2.6,2.2,3.6c1.1,1,2.2,1.6,3.3,1.8c1.1,0.2,2.1,0,3-0.7s1.7-1.7,2.4-3c0.9-1.6,1.3-5.4,1.4-11.4
		C679.6,101.8,679.2,85.3,678.3,58.1z"/>
</g>
<g class="st0">
	<path class="st1" d="M709.1,31.5l0.3-18.8l11.1-0.2l11.1-0.2l1.5,60.9c0.7,29.3,1.2,46.9,1.5,52.7c0.3,5.9,0.9,9.3,1.8,10.3
		c0.9,0.9,1.9,1.4,3,1.6c1.1,0.2,2.1,0.1,3.2-0.4c1-0.5,2-1.2,2.9-2.3c0.9-1.2,1.3-4.2,1.4-9c0.1-4.8-0.1-18.4-0.4-40.9
		c-0.6-31.8-0.8-51.8-0.5-60l0.2-12.8l9.5-0.2c6.2,0,9.4,0.2,9.7,0.5c0.3,0.3,0.6,21,1,62l0.3,61.6l-2.4,5.3c-1,2.2-2.3,4.3-3.7,6.3
		c-1.5,1.9-3.1,3.6-4.8,5.1c-1.7,1.4-3.3,2.4-4.8,2.9c-2.1,0.8-6,1.1-11.8,0.9c-5.1-0.2-9.3-1-12.4-2.3c-3.1-1.3-6-3.5-8.6-6.6
		c-1.9-2.5-3.1-4.3-3.8-5.6c-0.7-1.2-1.4-4.1-2.1-8.6c-0.7-4.5-1.1-9.3-1.3-14.4c-0.2-5.1-0.5-14.3-0.9-27.4
		C709.2,66.5,708.9,46.4,709.1,31.5z"/>
</g>
<g class="st0">
	<path class="st1" d="M790.8,6.2c1.8-0.9,4.3-1.5,7.4-1.8c3.1-0.3,6.1-0.3,9.2,0c3,0.3,5.4,0.9,7.2,1.8c6.5,3.2,11.4,8.5,14.7,15.7
		c3.3,7.2,4.7,15.7,4.3,25.4l-0.5,6.8l-9.5,0l-9.7,0l0-6c0-2.8-0.4-5.7-1.1-8.8c-0.8-3.1-1.7-5.9-2.9-8.5c-1.2-2.6-2.4-4.4-3.6-5.4
		c-2-1.6-3.5-2.4-4.6-2.3c-1.1,0.1-2.6,1-4.4,2.8c-3,3.1-3.6,7.5-1.7,13.2c1.9,5.7,6.9,14.5,15,26.3c6.8,9.9,11.7,17.6,14.7,23.2
		c3,5.6,5,10.7,6.1,15.2c1,4.6,1.4,10,1.1,16.3c-0.2,6.2-0.8,10.9-2.1,14c-1.2,3.2-3.6,6.3-7,9.4c-2.7,2.6-5.5,4.4-8.5,5.4
		c-2.9,1-6.6,1.2-11,0.8c-8-0.7-14.4-4.1-19.2-10c-3-3.5-5-7.1-6.1-10.6c-1.1-3.5-1.6-9-1.6-16.3c0-8.5,0.4-13,1.1-13.5
		c0.9-0.4,4-0.4,9.3,0l8.4,0.7l0.2,7.7c0.3,5,1,9.5,2.2,13.4c1.2,3.9,2.6,6.4,4.3,7.6c3.6,2.7,6.3,1.9,7.9-2.3
		c1.7-4.2,1.4-9.5-0.9-15.8c-0.9-2.6-2-5.2-3.3-7.7c-1.3-2.5-3-5.5-5.2-8.9c-2.2-3.5-5.3-8.2-9.4-14.2c-6.2-9.1-10.5-16-12.9-20.5
		c-2.4-4.6-4-8.7-4.7-12.4c-0.6-3.5-0.9-7.2-0.9-11c0-3.8,0.3-6,0.9-6.4c0.8-0.4,1-1.1,0.7-2c-0.5-1,0.3-3.3,2.2-6.7
		c1.9-3.5,3.9-6.3,6-8.5C785.3,9.4,787.9,7.4,790.8,6.2z M785.4,125.4c1.1,0.1,1.7,0.2,2,0.2c1.1,0,1.6,0.3,1.6,0.9
		c0,0.7-0.6,1.2-1.8,1.3c-1.2,0.1-2.6-0.1-4.1-0.9c-2.1-1-3.2-1.9-3.2-2.7c0-0.4,0.8-0.4,2.3,0.2
		C783.5,124.9,784.5,125.2,785.4,125.4z"/>
</g>
<g class="st0">
	<path class="st1" d="M839.2,5.5c0.8-0.5,1.6-0.4,2.4,0.4c0.9,0.8,1.9,0.7,2.9-0.2c0.9-0.7,2-0.8,3.2-0.2c1.2,0.8,2.6,0.9,4.3,0.3
		c1.8-0.7,9.6-0.8,23.3-0.2l20.8,0.6l0,10.2l0,10.2l-7.9-0.4c-5.4-0.4-8.4-0.4-8.8,0c-0.3,0.4-1,20.8-1.9,61.1l-1.4,60.5l-11.3,0
		l-11.5-0.2l1.2-60.5c1-40.5,1.3-60.8,1-61.1c-0.1-0.1-3.1-0.4-8.8-0.8l-8.6-0.4l0-9.3C838,9.4,838.4,6,839.2,5.5z"/>
</g>
<g class="st0">
	<path class="st1" d="M170.4,236.2c1.1-0.8,2.2-0.7,3.3,0.3c1.3,1,2.6,0.8,4-0.5c1.2-1.1,2.6-1.2,4.3-0.5c1.7,0.9,3.7,1,5.9,0
		c2.4-1.1,13.1-1.9,32-2.3l28.6-1l0.9,13.9l0.9,13.9l-10.9,0.2c-7.5-0.1-11.5,0.2-12.1,0.8c-0.4,0.6,0.5,28.6,2.8,84l3.3,83.1
		l-15.5,1l-15.9,0.7l-3.7-83.1c-2.2-55.6-3.6-83.6-4-84c-0.2-0.2-4.3-0.3-12.2-0.4l-11.8,0.2l-0.9-12.7
		C169.1,241.5,169.3,236.9,170.4,236.2z"/>
</g>
<g class="st0">
	<path class="st1" d="M371.7,226c3.9-0.8,6.5-1.1,7.7-0.9c0.2,0,0.7,0.1,1.6,0.2c0.8,0.2,1.8,0.3,2.8,0.5c1,0.2,2,0.2,2.8,0.2
		c3.3,0.5,5.6,1.5,6.7,3c1.1,1.6,1.9,1.6,2.5,0.2c0.4-1,2.3-0.4,5.7,1.9c2.3,1.5,4.3,2.9,5.8,4.1c1.5,1.3,2.9,2.7,4.2,4.4
		c1.3,1.7,2.7,3.9,4,6.7c3.3,5.3,5.5,12.7,6.6,22.2c1,9.5,2,29.2,2.9,59.1c0.9,25.7,1.3,41.8,1.2,48.4c-0.1,6.6-0.7,12-1.8,16.3
		c-1.8,6-4.7,11.3-8.6,16.2c-4.3,5.3-8.1,8.6-11.2,10.1c-3.2,1.5-8.3,2.3-15.3,2.6c-6.6,0.3-11.3,0-13.9-0.8
		c-2.6-0.8-6.3-3.2-11.1-7.3c-7.5-6.1-12.7-14.3-15.4-24.5c-1-4.6-2.3-24.5-3.9-59.7c-1.5-35.2-2.1-56.4-1.6-63.7
		c1.2-10.8,4.2-19.6,9-26.5C357.3,231.8,363.7,227.5,371.7,226z M388.1,258.1c-2-4-4.7-5.6-8-5c-3.3,0.7-5.6,3.2-6.8,7.7
		c-0.5,1.8,0.1,22.6,1.8,62.2c1.4,31.3,2.5,50.4,3.4,57.1c0.9,6.7,2.9,11.3,5.9,13.6c1.3,0.8,2.5,1.1,3.8,1c1.2-0.1,2.5-0.5,3.7-1.4
		c1.2-0.9,2.1-2,2.7-3.5c1.1-2.3,0.8-24-1-65.3c-0.7-15.8-1.2-27.1-1.5-34.1c-0.3-7-0.7-13.1-1.1-18.5c-0.4-5.3-0.9-8.7-1.2-10.1
		C389.3,260.5,388.8,259.3,388.1,258.1z"/>
</g>
<g class="st0">
	<path class="st1" d="M430.1,211.3c0.4-0.6,7.2-1,20.5-1.1c8.9-0.1,14.6,0,17,0.3c2.4,0.3,3.9,0.9,4.5,1.9c0.8,2,3.6,11.8,8.1,29.4
		c5.2,20.4,8.9,34.5,11,42.4l3.9,15.7l0.2-12.1c0-2-0.1-5.4-0.1-10.2c-0.1-4.8-0.1-10.5,0-17.3c0-6.8,0-12.6,0-17.4l0-32.5l11.2-0.4
		c7.5-0.3,11.8,0,13.1,0.8c1.5,1,2.6,55.8,3.3,164.5l0.3,31l-17.7-0.4l-17.7-0.1l-1-4.8c-5.9-24.4-13.2-53.2-22.1-86.3l-6.5-23.9
		l0.6,58l0.3,57.7l-3.1,0.6c-2.3,0.4-6.7,0.7-13.4,0.8l-10.6,0.1l-1.4-97.7C429.8,244.8,429.7,211.9,430.1,211.3z"/>
</g>
<g class="st0">
	<path class="st1" d="M602.7,222c0.4-0.6,7.8-1,22.1-1.1l21.2-0.2l1,7.9c4.3,35,6.8,52.4,7.4,52.4c0.2,0,0.7-3.1,1.5-9.4
		c3.8-29,5.7-45.8,5.7-50.4c0-0.4,7.6-0.6,22.7-0.5l22.4,0.1l1.3,93.8c0.9,62.3,0.6,94.1-0.8,95.3c-1.2,0.8-1.9,1.3-1.9,1.5l1.9-0.3
		c1.4-0.8,2.2-0.3,2.2,1.5c0,1.4-0.7,2.2-2,2.4c-1.3,0.2-5.2,0.4-11.7,0.4l-13.7,0.1l-0.7-67.7c-0.3-45.1-0.7-67-1.3-65.5
		c-1.2,3.3-4.6,29.7-10,79.3c-1.9,16.8-3.5,25.8-4.7,27.1c-1.8,2.2-2.3,3.5-1.5,3.7c0.2,0.2,0.6,0.1,1.2-0.3c0.6-0.4,1-0.1,1.1,0.9
		c0.1,1,0,3-0.4,6.1c-0.9,8.5-1.7,13.4-2.3,14.7c-0.6,1.3-2.4,2-5.3,2c-2.9,0-4.7-0.5-5.5-1.5c-0.7-1-1.4-4.4-2.1-10.3
		c-0.5-3.8-0.3-6,0.6-6.4c0.8-0.6,0.5-1.5-1-2.7c-1.3-1.4-1.9-4-2-7.9c0-3.8,0.6-6.4,1.8-7.6c0.8-1,1-1.4,0.6-1.2
		c-0.2,0-0.5,0.1-0.9,0.2c-0.4,0.1-0.8-0.1-1.1-0.7c-0.3-0.6-0.7-1.7-1.1-3.3c-0.4-1.6-0.8-3.8-1.2-6.5c-0.3-2.7-0.8-6.3-1.5-10.8
		c-1.8-14.7-4-30.9-6.6-48.3c-2.6-17.5-4.1-26.3-4.5-26.5c-0.2-0.2-0.3,2.6-0.2,8.5c0.1,5.9,0.1,14,0.1,24.4
		c0,10.4,0.1,21.6,0.2,33.5l0.7,67.4l-15.2,0.2l-15.2,0.2l-0.4-5.8c-0.5-24.9-0.7-59.2-0.8-103c-0.1-43.8,0.2-65.8,0.8-66
		c1-0.6,1-1.2,0-1.8c-0.8-0.4-1.3-3.1-1.5-8.2C601.8,226.3,602.1,223.2,602.7,222z"/>
</g>
<g class="st0">
	<path class="st1" d="M780.3,237.3c2.3-0.3,6.5-0.1,12.6,0.5c6.1,0.6,9.4,1.1,10,1.6c0.2,0.4-3.2,12.5-10.2,36.1
		c-7,23.7-11.7,39.5-14.3,47.4c-2,5.7-4.4,25.5-7,59.2c0,0.2,0,0.5-0.1,0.9c-2,24.6-3.3,39.1-3.9,43.4c-0.6,4.3-1.5,6.4-2.8,6.4
		c-1.9-0.1-3-1.6-3.4-4.5l-0.4-4l-0.6,4.2l-0.6,4.2l-11.2-1l-11.8-0.8l0.1-6.7c0.1-4.3,0.7-6.3,2-6.3c0.6,0,1.3,0.8,2,2.3
		c0.7,1.5,1.3,1.3,1.6-0.5c0.2-0.4,0.4-0.8,0.4-1.2c0.6-2.8,0.4-4.2-0.7-4.3c-2.1-0.1-3.2-2.9-3.5-8.3c-0.3-5.4,0.2-16.6,1.3-33.5
		c1-15.7,1.6-26.1,1.6-31.1c0-5-0.5-10.7-1.5-17.3c-0.5-2.3-1.2-6-2.1-11.1c-0.9-5.1-2-11.7-3.4-19.7c-1.3-8-2.5-14.4-3.4-19.1
		c-0.9-5.1-1.9-11-3.1-17.7c-1.1-6.7-2-11.6-2.6-14.9c-0.6-3.3-0.9-5.1-0.9-5.5c-0.2-0.6-0.2-1.1-0.1-1.4c0.1-0.3,0.8-0.5,2.1-0.5
		c1.2,0,2.8,0,4.7,0c1.9,0,4.8,0.2,8.7,0.4l15.8,1l1,8c1.2,7,2.4,14.1,3.6,21.5c1.7,9.4,2.4,15.1,2.3,16.9c-0.1,2,0.1,3,0.7,3.1
		c0.8,0.1,2.7-6.5,5.7-19.7c0.2-0.4,0.4-1,0.4-1.8c2.9-13,4.9-20.6,5.9-22.7C776.4,238.8,778,237.5,780.3,237.3z M747.5,414
		c0.7-1.4,0.6-2.1-0.3-2.2c-0.9-0.1-1.4,0.6-1.5,1.9c-0.1,1.3,0.1,2,0.5,2C746.4,415.7,746.8,415.1,747.5,414z"/>
</g>
<g class="st0">
	<path class="st1" d="M890.8,218.8c3.3-0.5,15.9-0.9,37.6-1.4l31.7-0.4l0.2,7.3c-0.1,5.5-0.1,10.1,0,14l-0.2,6.4l-21.5,0.5
		l-21.5,0.5l0.6,28.2l0.6,28.2l6.2,0.5c2.1,0.4,6.5,0.7,13.4,0.9l7.5,0.1l-0.2,5.5c0,0.8,0,2.8,0,6.1c0,3.2,0,5.6,0,7l0.2,7.9
		l-14,0.3l-13.7,0.3l0.9,41l0.9,41l-5,1c-1.7,0.2-3.1,0.3-4.4,0.1c-1.2-0.2-2-0.6-2.4-1.3c-0.3-0.7-0.3-1.5,0.1-2.3
		c0.4-0.8-0.4-2-2.3-3.6c-1.1-1.2-1.9-1.8-2.5-1.9c-0.6-0.1-1.2,0.4-1.8,1.4c-1,1.2-1.2,2.3-0.6,3c0.8,0.6,1.4,0.3,1.5-0.9
		c0.6-1.4,1.4-1.6,2.5-0.7c0.6,0.6,1,1.4,1,2.4c0,1.2-0.5,1.6-1.5,1.2c-0.8-0.6-1.3-0.3-1.2,0.9c0,1-0.7,1-2.2-0.1
		c-1.5-1.1-2.2-1.2-2.2-0.4c0,1.4-1.2,1.5-3.7,0.4l-2.2-1.8c-0.6-1-1.3-0.9-1.9,0.3c-0.6,1.8-1.4,1.9-2.5,0.1
		c-0.4-0.8-0.7-1.9-0.7-3.3c0-2,0.4-3,1.5-3.1c1,0,2.4,1,4.1,3c1.7,1.4,2.5,1.7,2.5,0.9c0-1.6,0.8-2.7,2.4-3.4
		c1.2-0.4,1.6-1,1.2-1.8c-0.4-0.8,0.1-1.5,1.5-2.2c1-0.4,1.5-0.7,1.5-0.9c0-0.2-0.4-0.6-1.3-1.2c-1.5-0.8-1.6-2.1-0.4-3.9
		c0.6-1,0.8-1.6,0.6-1.8c-0.2-0.2-1-0.2-2.5,0.1c-2.3,0.5-3.4,0.2-3.4-0.8c0-1-0.4-1.5-1.3-1.5c-1,0-1.3,0.7-0.9,2.1
		c0.4,0.8,0.5,1.3,0.3,1.5c-0.2,0.2-0.7,0.2-1.6,0c-0.6-0.4-1.1-0.4-1.4,0c-0.3,0.4-0.4,1.1-0.4,2.1l0.7,1.8l0.3-0.6
		c0.4-1.2,1-1.5,1.8-1c0.8,0.6,1,1.5,0.4,2.7c-0.6,1.4-0.3,2.1,1,2.1c0.8,0,1.3,0.5,1.3,1.5c0,1-0.6,1-1.9,0c-1.3-1-2.5-1.4-3.8-1.1
		c-1,0.2-1.7-1.3-2-4.5c-0.3-3,0.1-5,1.1-5.8c1-0.6,1-1.2,0-1.8c-0.8-0.6-1.5-7.8-1.9-21.5c-0.4-13.8-1-54.6-1.8-122.6l-0.5-26.1
		L890.8,218.8z M907.1,387c-0.7-1.6-1.4-2.4-2.2-2.4c-1.7,0-1.3,0.9,1,2.7c0.8,0.8,1.4,1.1,1.6,1C907.7,388.2,907.5,387.8,907.1,387
		z"/>
</g>
<g class="st0">
	<path class="st1" d="M978.8,220.1c0.8-1.2,7.3-1.9,19.6-1.9c8.3,0,13.6,0.2,15.9,0.4c2.3,0.3,3.5,0.9,3.8,1.9
		c0.4,1.4,1.5,7.4,3.2,17.8c0.5,2.4,1.2,7.2,2.3,14.2c1.1,7.1,1.9,11.9,2.3,14.5c1.6,8.9,2.7,15.8,3.2,20.9
		c0.5,4.2,2.2,16.8,5.1,37.5c2.2,17.8,4,30.8,5.2,39c0.3,3,1.5,12.1,3.7,27.2c1.9,12.3,2.6,18.9,2,19.7c-0.4,0.8-5.5,1.4-15.4,1.7
		c-9.8,0.3-15.1,0.2-15.7-0.4c-0.4-0.8-1-4.3-1.8-10.6c-0.8-8.1-1.6-12.7-2.3-13.8c-0.8-1.1-3.5-1.6-8.3-1.5l-8.1,0.2l-0.5,5.8
		c-0.4,2.4-0.7,6.9-1,13.4l-0.2,7.3l-13.4,0.6c-6.6,0.3-10.6,0.4-11.8,0.2c-1.2-0.2-2-1.1-2.2-2.7c-0.6-6.7,0-18.9,1.7-36.8
		c0.8-11.8,1.5-20.8,2.2-27.1c0.3-6.3,0.9-15.5,1.9-27.7c1.2-12.2,1.9-21.2,2.2-27.1c0.3-3.8,0.9-10.8,1.7-21
		c0.8-9.5,1.4-17.1,1.7-22.8C976.6,232.3,977.6,222.5,978.8,220.1z M975.9,377.1c-2.2-4-4-5.6-5.4-4.7c-0.6,0.2-0.9,0.8-0.9,1.8
		c0,1.8,0.9,3.8,2.5,6c1.6,2.2,2.9,3.3,4,3.3c0.6,0,1.1-0.1,1.4-0.3c0.3-0.2,0.5-0.6,0.4-1.1c0-0.5-0.2-1.2-0.5-2
		C977,379.3,976.5,378.3,975.9,377.1z M979.2,371.8c0,0.6-0.5,1.1-1.5,1.5c-0.8,0.4-1.2,0.2-1.3-0.6c0-1,0.4-1.5,1.4-1.5
		S979.2,371.4,979.2,371.8z M986.1,373.8c0,0.8-0.2,1.2-0.6,1.2c-0.4,0-0.9-0.4-1.6-1.2c-0.4-0.8-0.2-1.2,0.6-1.2
		C985.5,372.6,986,373,986.1,373.8z M990.1,372.4c0,0.9-0.1,1.4-0.3,1.4c-0.6,0-1.2-0.4-1.6-1.2c-0.4-1-0.2-1.5,0.6-1.5
		C989.6,371,990,371.5,990.1,372.4z M1000.8,321c-1.4-8.3-2.3-12.6-2.8-13c-0.2-0.2-0.4,1-0.5,3.5c-0.2,2.5-0.4,6-0.7,10.5
		c0,1.4-0.3,10.1-1,26.1l-0.7,12.2l5.9-0.1l5.9-0.1l-1-5.1c-0.2-0.8-0.8-5.1-1.8-13C1003.3,336.6,1002.2,329.7,1000.8,321z"/>
</g>
<g class="st0">
	<path class="st1" d="M1078.1,235.7c4.2-2,9.2-2.9,15.3-2.6c7,0.3,12.4,1.1,16,2.6c3.6,1.4,7.3,4.1,11,8c2.9,3.3,5.1,6.7,6.8,10.2
		c1.6,3.6,2.8,7.8,3.5,12.8c0.7,5,1,11.2,0.9,18.7l-0.1,14.9l-12.8-0.1l-12.8-0.1l-1.4-16.7c-1.1-15-3.3-23.1-6.7-24.3
		c-1.4-0.6-3.1-0.5-5,0.3c-1.9,0.8-3.4,2.1-4.7,3.9c-1.1,1.6-1.7,5.5-2,11.7c-0.3,6.2-0.5,21.9-0.7,47.2c0,29.3,0.2,48.9,0.8,58.7
		c0.5,9.8,1.8,15.7,3.9,17.8c1,1,2.2,1.7,3.4,2.2c1.2,0.4,2.5,0.4,3.9,0c1.3-0.4,2.5-1.2,3.6-2.4c0.6-0.6,1.1-1.3,1.4-2.1
		c0.3-0.8,0.6-2,1-3.5c0.3-1.5,0.5-3.4,0.7-5.8c0.1-2.3,0.3-5.4,0.5-9.3l0.8-17.6l12.8-0.2c8.1-0.3,12.3,0,12.7,1
		c0.2,0.4,0.3,0.9,0.3,1.5c0,1.4,0.2,5.5,0.5,12.1c0.3,8.3-0.3,15.9-2,22.7c-1.7,6.9-4.3,12.7-7.8,17.5c-3.5,4.8-7.8,8.3-13,10.5
		c-6,2.8-12.8,3.5-20.4,2.1c-7.6-1.4-13.8-4.4-18.8-9.1c-4.1-4.1-8.3-11.1-12.6-21c-1.6-4.1-2.5-26.3-2.6-66.6
		c-0.1-40.4,0.7-63.5,2.4-69.3c0.6-2.4,1.3-4,1.9-4.8c0.6-0.8,1.4-1,2.2-0.6c0.8,0.2,1.2,0.3,1.2,0.2c0-0.1-0.3-0.6-0.9-1.4
		c-1-1.4,0.4-4.4,4.4-9.1C1069.9,241,1073.9,237.7,1078.1,235.7z M1085.5,248.2c0,0.6-0.2,1-0.6,1.2c-0.8-0.6-1.2-1.4-1.2-2.4
		c0-1.8,0.5-1.8,1.6,0L1085.5,248.2z M1097.2,415.2c1-1.2,1.1-2.1,0-2.7c-1-0.6-1.2-0.5-0.6,0.3c0.6,1,0.3,1.7-1,2.1
		c-1,0.4-1.4,0.9-0.9,1.5C1095.3,417.2,1096.2,416.8,1097.2,415.2z M1101,236.5c1.3,0,2,0.5,2,1.4s-0.7,1.2-2.2,0.7
		c-1.2-0.8-1.9-1.3-1.9-1.5C1098.9,236.7,1099.6,236.5,1101,236.5z M1111.3,241.1c0,0.2-0.2,0.3-0.5,0.3s-0.7,0-1.1,0
		c-0.4,0-0.8-0.1-1.2-0.3c-1.9-0.4-2.8-1.1-2.8-2.1c0-0.8,0.9-0.7,2.8,0.3C1110.4,240.3,1111.3,240.9,1111.3,241.1z M1113.5,406.2
		c0.4-0.4-0.1-1.2-1.5-2.4c-1.2-1.2-1.9-1.3-1.9-0.3c0,0.8,0.5,1.6,1.4,2.3C1112.4,406.5,1113,406.6,1113.5,406.2z"/>
</g>
<g class="st0">
	<path class="st1" d="M1140.7,225c0.2-0.4,0.7-0.8,1.5-1.1c0.8-0.3,2.6-0.6,5.3-0.9c2.7-0.3,6-0.5,9.9-0.6c3.9-0.1,9.8-0.4,17.7-0.8
		c21.1-0.7,31.9-0.6,32.4,0.2c0.2,0.4,0.2,0.8,0,1.2c-0.4,1.8,0,3,1,3.6c1.1,0.8,1.8,0.7,2.2-0.4c0.4-1.2,1-1.9,1.8-1.9
		c1,0,1.5,3.7,1.3,11.2l0,11.2l-21.1,1l-21.1,1l0.9,28.2l0.9,28.2l13.1-0.1l12.5,0.2l1,11.8c0.5,8.1,0.1,12.6-1.1,13.4
		c-1.2,0.6-5.6,1.1-13,1.3l-11.5,0.4l1.2,28.8l1.2,28.2l20.5-0.6l20.2-0.9l0.5,7.6c0.3,2.8,0.5,5.3,0.5,7.3c0.1,2,0,4.2-0.1,6.4
		c0.1,1.8-0.1,3.1-0.3,3.8c-0.3,0.7-0.7,1.3-1.2,1.7c-0.5,0.4-1.5,0.8-2.9,1c-4.1,0.5-11,0.9-20.7,1.2c-9.6,0.3-19.5,0.3-29.6,0.2
		c-10.1-0.2-15.4-0.6-16.1-1.2c-1.3-1-2.9-32.6-4.8-94.9C1140.6,258.7,1139.9,226.8,1140.7,225z"/>
</g>
<g class="st0">
	<path class="st1" d="M1254.4,372.4l0.6,0.9l-0.2,32.8c-20.7,0.3-24.5,0.4-11.2,0.4c-5.6,0.3-10.1,0.2-13.4-0.1l-0.3-1.2
		c-1-13.9-1.1-24.3-0.4-31c0.4-1.2,1.5-1.8,3.4-1.9l4.4-0.1C1240,372.3,1245.7,372.3,1254.4,372.4z M1233.3,401.2
		c0,0.4-0.2,0.6-0.6,0.6l0-1.2C1233.1,400.6,1233.3,400.8,1233.3,401.2z M1243,379.8l0,1.2c-12.9,17-12.8,17,0.3,0l1.6-0.3
		c-0.2-0.4-0.2-0.7,0-0.9L1243,379.8z"/>
</g>
<g class="st0">
	<path class="st1" d="M1290.1,372.6l0.6,0.9l-0.2,32.8c-20.7,0.3-24.5,0.4-11.2,0.4c-5.6,0.3-10.1,0.2-13.4-0.1l-0.3-1.2
		c-1-13.9-1.1-24.3-0.4-31c0.4-1.2,1.5-1.8,3.4-1.9l4.4-0.1C1275.7,372.5,1281.4,372.5,1290.1,372.6z M1269,401.4
		c0,0.4-0.2,0.6-0.6,0.6l0-1.2C1268.8,400.8,1269,401,1269,401.4z M1278.7,380l0,1.2c-12.9,17-12.8,17,0.3,0l1.6-0.3
		c-0.2-0.4-0.2-0.7,0-0.9L1278.7,380z"/>
</g>
<g class="st0">
	<path class="st1" d="M1324.9,368.6l0.6,0.9l-0.2,32.8c-20.7,0.3-24.5,0.4-11.2,0.4c-5.6,0.3-10.1,0.2-13.4-0.1l-0.3-1.2
		c-1-13.9-1.1-24.3-0.4-31c0.4-1.2,1.5-1.8,3.4-1.9l4.4-0.1C1310.5,368.5,1316.2,368.5,1324.9,368.6z M1303.8,397.4
		c0,0.4-0.2,0.6-0.6,0.6l0-1.2C1303.6,396.8,1303.8,397,1303.8,397.4z M1313.5,376.1l0,1.2c-12.9,17-12.8,17,0.3,0l1.6-0.3
		c-0.2-0.4-0.2-0.7,0-0.9L1313.5,376.1z"/>
</g>
<g class="st0">
	<path class="st1" d="M1.4,275.8L0,227.2l24.3-0.7c9.5-0.3,16.4-0.3,20.7,0c4.3,0.3,7.7,1,10.3,2.1c2.6,1.1,5.6,3.1,9,5.8
		c5.7,4.7,9.6,10.2,11.7,16.7c2.1,6.4,3.3,16.2,3.7,29.3c0.5,16.2-0.6,27.8-3.2,34.9c-2.6,7.1-7.6,12.6-14.9,16.7
		c-3.3,1.7-8.9,2.7-17,2.9l-12.1,0.7l0.4,13.3c0.5,17.2,0.9,30.6,1.2,40.3l1.1,26.7l-15.6,0.5l-14.9,0.4l-0.6-11.5l-0.3-11.5L7,394
		c1.9,0.4,3,0.4,3.4,0.2l-2.2-1.1c-0.4-0.2-0.8-0.4-1.3-0.6c-2.3-0.7-3.5-2.5-3.6-5.4c-0.1-2.6,0.6-4,2.1-4c1,0,1.6-0.1,1.7-0.4
		c0.1-0.2-0.5-0.7-1.8-1.5c-1.3-0.8-2-2.7-2.2-5.7c-0.2-3-0.4-10.9-0.5-23.7C2.8,339.6,2.3,314.2,1.4,275.8z M27,244.4
		c-1.5-0.6-2.8-1.2-4.1-2c-0.8-0.6-1.3-0.8-1.3-0.6c0.2,0.4,0.7,1.1,1.3,2.1c1.3,2,2.7,2.7,4.1,2c0.8-0.4,1.2-0.7,1.2-0.9
		C28.2,244.7,27.8,244.5,27,244.4z M30.2,247.3c-0.4,1-0.8,1.5-1.2,1.6c-0.4-0.4-0.3-1,0.3-1.8c1-2,1.5-2.4,1.5-1L30.2,247.3z
		 M43.4,254.5c-1.3-0.8-3.6-1.3-6.9-1.6c-3.3-0.3-5.2-0.1-5.7,0.6c-0.5,0.7-0.4,9.9,0.3,27.6c0.7,17.7,1.4,26.6,2,26.8
		c5,0.7,9-0.3,12.1-2.8c1-0.8,1.7-1.5,2.1-2c0.4-0.5,0.7-1.5,1-3.1c0.3-1.5,0.4-3.2,0.5-5.2c0-1.9,0.1-5.3,0.2-10.2
		C49.1,267.7,47.3,257.6,43.4,254.5z"/>
</g>
<g class="st0">
	<path class="st1" d="M88.7,272.5l0.2-25.8l15.2-0.4l15.2-0.4l2.7,83.7c1.4,40.2,2.3,64.4,2.7,72.5c0.4,8.1,1.3,12.8,2.6,14.2
		c1.3,1.2,2.6,1.9,4.1,2.2c1.5,0.3,2.9,0.1,4.3-0.6c1.4-0.6,2.8-1.7,4-3.2c1.2-1.7,1.8-5.8,1.8-12.3c0-6.6-0.3-25.3-1-56.3
		c-1.3-43.7-1.8-71.2-1.5-82.5l0.1-17.6l13.1-0.4c8.5,0,13,0.1,13.4,0.5c0.4,0.4,1.1,28.8,2.2,85.3l1.2,84.7l-3.2,7.4
		c-1.4,3.1-3,6-5,8.6c-2,2.7-4.2,5-6.5,7c-2.3,2-4.5,3.3-6.6,4c-2.9,1.1-8.3,1.6-16.1,1.4c-7.1-0.2-12.7-1.2-17.1-3
		c-4.3-1.8-8.3-4.8-11.9-8.9c-2.6-3.4-4.4-5.9-5.4-7.6c-1-1.7-2-5.6-3-11.8c-1-6.1-1.7-12.8-2-19.8c-0.3-7.1-0.8-19.6-1.6-37.6
		C89.4,320.6,88.7,292.9,88.7,272.5z"/>
</g>
</svg>
